<?xml version="1.0" ?><!DOCTYPE svg  PUBLIC '-//W3C//DTD SVG 1.1//EN'  'http://www.w3.org/Graphics/SVG/1.1/DTD/svg11.dtd'><svg enable-background="new 0 0 100 100" height="100px" id="Layer_1" version="1.1" viewBox="0 0 100 100" width="100px" xml:space="preserve" xmlns="http://www.w3.org/2000/svg" xmlns:xlink="http://www.w3.org/1999/xlink"><g><circle cx="50" cy="50.001" fill="#643DA7" r="45"/><g><path d="M45.883,70.593c-1.831,0-3.66,0-5.49,0c0-1.824,0-3.646,0-5.502c-3.23,0-6.398,0-9.608,0    c0-0.154,0-0.279,0-0.404c0-9.307-0.001-18.613,0.005-27.92c0.001-0.207,0.048-0.426,0.122-0.619    c0.815-2.117,1.648-4.229,2.458-6.35c0.115-0.305,0.27-0.391,0.591-0.391c11.594,0.01,23.188,0.008,34.78,0.008    c0.15,0,0.302,0,0.476,0c0,0.16,0,0.258,0,0.357c0,8.006,0.002,16.012-0.012,24.016c0,0.199-0.112,0.443-0.254,0.584    c-3.478,3.496-6.965,6.984-10.463,10.461c-0.148,0.15-0.414,0.256-0.626,0.258c-2.473,0.018-4.945,0.018-7.418,0.004    c-0.319-0.002-0.516,0.088-0.709,0.35C48.462,67.167,47.169,68.878,45.883,70.593z M65.099,33.563c-9.636,0-19.218,0-28.79,0    c0,8.697,0,17.365,0,26.064c2.743,0,5.454,0,8.209,0c0,1.805,0,3.582,0,5.443c0.176-0.166,0.29-0.268,0.397-0.375    c1.607-1.605,3.209-3.219,4.829-4.812c0.151-0.148,0.413-0.258,0.624-0.26c2.486-0.018,4.975-0.018,7.462-0.006    c0.298,0.002,0.5-0.092,0.707-0.301c2.085-2.098,4.178-4.191,6.277-6.275c0.21-0.209,0.29-0.416,0.29-0.711    c-0.008-6.105-0.006-12.209-0.006-18.311C65.099,33.878,65.099,33.735,65.099,33.563z" fill="#FFFFFF"/><path clip-rule="evenodd" d="M45.905,40.415c1.36,0,2.698,0,4.065,0c0,3.641,0,7.275,0,10.936    c-1.348,0-2.696,0-4.065,0C45.905,47.714,45.905,44.089,45.905,40.415z" fill="#FFFFFF" fill-rule="evenodd"/><path clip-rule="evenodd" d="M58.205,51.358c-1.367,0-2.704,0-4.064,0    c0-3.645,0-7.268,0-10.928c1.338,0,2.686,0,4.064,0C58.205,44.054,58.205,47.688,58.205,51.358z" fill="#FFFFFF" fill-rule="evenodd"/></g></g></svg>